#!OML:ASF E:\Steps\Project 1\Capture day 1\Session 2\Subject.ASF
:FULLY-SPECIFIED
:DEGREES
414
root 8.86291 16.2874 23.117 -154.903 -0.388693 179.834
lowerback -26.2676 -1.37432 -4.46799
upperback -2.67681 -1.21259 -0.152008
thorax 11.72 -1.07792 1.90815
lowerneck -1.66888 -3.84943 -0.627832
upperneck -5.61395 -4.82241 3.1631
head -1.35891 -2.35995 1.11245
rclavicle 2.38542e-015 6.75868e-015
rhumerus -36.1111 -18.1778 -80.1688
rradius 29.1473
rwrist 0.816762
rhand -8.76019 -53.4027
rfingers 7.12502
rthumb 17.1773 -82.6634
lclavicle 2.38542e-015 6.75868e-015
lhumerus -30.369 2.72531 82.9616
lradius 20.9122
lwrist -6.36006
lhand -19.8491 -13.3129
lfingers 7.12502
lthumb 6.48545 16.5678
rfemur -26.5843 9.10735 16.8506
rtibia 16.7632
rfoot -23.5586 -8.95471
rtoes -30.1277
lfemur -27.1656 -9.66459 -19.2463
ltibia 18.8117
lfoot -12.701 4.21337
ltoes -37.1366
415
root 8.86235 16.2901 23.1098 -154.927 -0.389343 179.796
lowerback -26.2384 -1.39579 -4.51908
upperback -2.68765 -1.22942 -0.146907
thorax 11.694 -1.08817 1.9379
lowerneck -1.64701 -3.87559 -0.663796
upperneck -5.65911 -4.8535 3.19513
head -1.37478 -2.37501 1.13
rclavicle -2.78299e-015 1.98785e-015
rhumerus -36.1733 -17.9213 -80.2056
rradius 29.1493
rwrist 0.569956
rhand -8.3794 -53.2922
rfingers 7.12502
rthumb 17.5438 -82.5206
lclavicle -2.78299e-015 1.98785e-015
lhumerus -30.4265 3.4122 82.6539
lradius 20.5675
lwrist -7.49003
lhand -20.1907 -12.7074
lfingers 7.12502
lthumb 6.15568 17.1831
rfemur -26.4791 9.12716 16.8049
rtibia 16.6846
rfoot -23.5156 -8.97176
rtoes -29.8564
lfemur -27.1076 -9.65388 -19.3002
ltibia 18.7896
lfoot -12.6803 4.16341
ltoes -36.8906
416
root 8.85989 16.2914 23.0978 -154.901 -0.438328 179.787
lowerback -26.3249 -1.4165 -4.51726
upperback -2.68558 -1.25558 -0.141106
thorax 11.7442 -1.10215 1.93233
lowerneck -1.66699 -3.87822 -0.667026
upperneck -5.62425 -4.85898 3.19445
head -1.36016 -2.37778 1.12916
rclavicle -2.98177e-015 1.63003e-014
rhumerus -36.211 -17.6801 -80.2679
rradius 29.1563
rwrist 0.481158
rhand -7.61361 -53.0785
rfingers 7.12502
rthumb 18.2806 -82.2395
lclavicle -2.98177e-015 1.63003e-014
lhumerus -30.4716 3.82987 82.4609
lradius 20.2976
lwrist -7.98109
lhand -20.4629 -13.588
lfingers 7.12502
lthumb 5.89295 16.31
rfemur -26.3481 9.08852 16.8062
rtibia 16.5268
rfoot -23.4594 -8.94757
rtoes -29.952
lfemur -27.0682 -9.68393 -19.3266
ltibia 18.7684
lfoot -12.6361 4.19189
ltoes -37.1726
417
root 8.85862 16.2926 23.0848 -154.847 -0.465848 179.816
lowerback -26.5086 -1.44276 -4.52888
upperback -2.64771 -1.27993 -0.100539
thorax 11.8887 -1.11762 1.97256
lowerneck -1.75056 -3.83238 -0.685094
upperneck -5.51961 -4.80573 3.13597
head -1.31479 -2.35018 1.10962
rclavicle 1.54058e-015 1.31198e-014
rhumerus -36.2074 -17.5203 -80.2818
rradius 29.1885
rwrist 0.451477
rhand -7.34963 -53.0463
rfingers 7.12502
rthumb 18.5345 -82.1833
lclavicle 1.54058e-015 1.31198e-014
lhumerus -30.4305 4.18397 82.3503
lradius 20.0327
lwrist -8.28963
lhand -20.5234 -13.1045
lfingers 7.12502
lthumb 5.83451 16.7952
rfemur -26.2384 9.09461 16.8317
rtibia 16.3318
rfoot -23.3732 -8.90264
rtoes -30.0486
lfemur -27.0426 -9.73314 -19.2877
ltibia 18.7098
lfoot -12.6079 4.25776
ltoes -37.463
418
root 8.85989 16.2942 23.0768 -154.821 -0.473598 179.83
lowerback -26.6134 -1.4596 -4.56788
upperback -2.62089 -1.28543 -0.0818619
thorax 11.977 -1.12401 2.01209
lowerneck -1.71981 -3.80897 -0.676444
upperneck -5.48463 -4.7785 3.12196
head -1.31004 -2.33778 1.10385
rclavicle -5.71506e-015 1.86858e-014
rhumerus -36.1838 -17.6006 -80.2412
rradius 29.1295
rwrist 0.491818
rhand -7.42376 -53.0271
rfingers 7.12502
rthumb 18.4632 -82.1708
lclavicle -5.71506e-015 1.86858e-014
lhumerus -30.4431 4.36334 82.2807
lradius 19.8764
lwrist -8.37901
lhand -20.3703 -13.411
lfingers 7.12502
lthumb 5.98229 16.4846
rfemur -26.1683 9.15949 16.83
rtibia 16.2191
rfoot -23.4191 -8.8624
rtoes -29.3209
lfemur -27.0136 -9.77656 -19.242
ltibia 18.6508
lfoot -12.5392 4.32132
ltoes -37.4833
419
root 8.86229 16.2954 23.0707 -154.795 -0.479346 179.82
lowerback -26.6558 -1.45211 -4.62153
upperback -2.63632 -1.25994 -0.104879
thorax 11.9799 -1.11615 2.02524
lowerneck -1.61275 -3.80954 -0.662528
upperneck -5.37534 -4.78901 3.13808
head -1.29356 -2.34714 1.10725
rclavicle 1.3418e-015 2.78299e-015
rhumerus -36.2343 -17.7702 -80.2168
rradius 29.0897
rwrist 0.547903
rhand -7.48931 -53.2734
rfingers 7.12502
rthumb 18.4002 -82.4231
lclavicle 1.3418e-015 2.78299e-015
lhumerus -30.5901 4.36376 82.2211
lradius 19.8403
lwrist -8.40146
lhand -20.346 -13.3232
lfingers 7.12502
lthumb 6.00581 16.5716
rfemur -26.1635 9.20611 16.8102
rtibia 16.2578
rfoot -23.5546 -8.86422
rtoes -28.6744
lfemur -27.0106 -9.82948 -19.2171
ltibia 18.6165
lfoot -12.5337 4.35386
ltoes -37.4021
420
root 8.86383 16.2961 23.0646 -154.763 -0.489524 179.822
lowerback -26.6473 -1.44855 -4.65474
upperback -2.67466 -1.25328 -0.10671
thorax 11.9306 -1.11599 2.04501
lowerneck -1.56469 -3.77746 -0.697001
upperneck -5.21348 -4.76008 3.10985
head -1.25117 -2.33512 1.10231
rclavicle -1.55052e-014 -5.1684e-015
rhumerus -36.3002 -17.8661 -80.1773
rradius 29.0495
rwrist 0.50908
rhand -7.65866 -53.6126
rfingers 7.12502
rthumb 18.2373 -82.7777
lclavicle -1.55052e-014 -5.1684e-015
lhumerus -30.7056 4.59821 82.0813
lradius 19.6403
lwrist -8.69003
lhand -20.4918 -13.851
lfingers 7.12502
lthumb 5.86498 16.0479
rfemur -26.1601 9.20699 16.8201
rtibia 16.2782
rfoot -23.6333 -8.92472
rtoes -29.0177
lfemur -27.0147 -9.79448 -19.2089
ltibia 18.5791
lfoot -12.5448 4.29371
ltoes -37.1106
421
root 8.86501 16.2972 23.0582 -154.77 -0.508228 179.838
lowerback -26.5378 -1.45615 -4.66889
upperback -2.73018 -1.27449 -0.0854802
thorax 11.8103 -1.12638 2.07199
lowerneck -1.52505 -3.74027 -0.734777
upperneck -5.12344 -4.7198 3.06823
head -1.23045 -2.31613 1.09485
rclavicle 8.79622e-015 7.95139e-015
rhumerus -36.3909 -17.9613 -80.0867
rradius 28.9599
rwrist 0.579408
rhand -7.68735 -53.4581
rfingers 7.12502
rthumb 18.2097 -82.6257
lclavicle 8.79622e-015 7.95139e-015
lhumerus -30.792 4.96356 81.8987
lradius 19.3584
lwrist -8.9632
lhand -20.4684 -14.9676
lfingers 7.12502
lthumb 5.88759 14.9306
rfemur -26.0883 9.22903 16.848
rtibia 16.1827
rfoot -23.6423 -8.98163
rtoes -29.4428
lfemur -26.9667 -9.70819 -19.2053
ltibia 18.5295
lfoot -12.499 4.24004
ltoes -36.9762
422
root 8.86469 16.2978 23.0484 -154.777 -0.489128 179.825
lowerback -26.4965 -1.42542 -4.68229
upperback -2.78043 -1.23762 -0.122722
thorax 11.7266 -1.11022 2.05164
lowerneck -1.49614 -3.759 -0.698366
upperneck -5.05562 -4.74949 3.07333
head -1.21415 -2.33294 1.08992
rclavicle 8.79622e-015 2.34566e-014
rhumerus -36.6154 -18.0049 -80.0521
rradius 29.0005
rwrist 0.534458
rhand -7.68145 -52.9936
rfingers 7.12502
rthumb 18.2153 -82.1607
lclavicle 8.79622e-015 2.34566e-014
lhumerus -30.9846 5.05625 81.7508
lradius 19.3015
lwrist -9.02993
lhand -20.5569 -14.1271
lfingers 7.12502
lthumb 5.8022 15.7735
rfemur -25.9893 9.18389 16.8366
rtibia 16.0213
rfoot -23.5664 -8.94275
rtoes -29.4488
lfemur -26.8749 -9.71751 -19.2373
ltibia 18.4485
lfoot -12.4971 4.32682
ltoes -37.6011
423
root 8.86252 16.2979 23.0384 -154.702 -0.447913 179.792
lowerback -26.6349 -1.41641 -4.70435
upperback -2.77947 -1.21511 -0.141367
thorax 11.7991 -1.10402 2.04853
lowerneck -1.43695 -3.81648 -0.716754
upperneck -5.16165 -4.81815 3.13635
head -1.25441 -2.36728 1.11632
rclavicle 1.06847e-014 -1.15295e-014
rhumerus -36.6841 -17.9142 -80.0822
rradius 29.0623
rwrist 0.270671
rhand -7.82019 -52.6014
rfingers 7.12502
rthumb 18.0818 -81.7809
lclavicle 1.06847e-014 -1.15295e-014
lhumerus -31.1777 4.9656 81.7848
lradius 19.4009
lwrist -8.47557
lhand -20.5737 -13.7527
lfingers 7.12502
lthumb 5.78589 16.1483
rfemur -25.9863 9.01328 16.8054
rtibia 15.9084
rfoot -23.4136 -8.82733
rtoes -29.72
lfemur -26.859 -9.76636 -19.2862
ltibia 18.3748
lfoot -12.4321 4.41678
ltoes -37.6913
424
root 8.86323 16.2985 23.0308 -154.619 -0.391671 179.751
lowerback -26.7919 -1.42794 -4.78921
upperback -2.76422 -1.20033 -0.137026
thorax 11.9001 -1.10509 2.10459
lowerneck -1.42223 -3.83459 -0.746436
upperneck -5.18238 -4.84022 3.16706
head -1.26164 -2.37817 1.1317
rclavicle 3.47873e-016 6.36111e-015
rhumerus -36.7246 -17.7886 -80.1354
rradius 29.1797
rwrist -0.0194753
rhand -7.90386 -52.4742
rfingers 7.12502
rthumb 18.0013 -81.6611
lclavicle 3.47873e-016 6.36111e-015
lhumerus -31.3081 4.79921 81.9103
lradius 19.4263
lwrist -7.57956
lhand -20.5631 -13.7793
lfingers 7.12502
lthumb 5.79622 16.1214
rfemur -26.0247 8.97301 16.7384
rtibia 15.8766
rfoot -23.3585 -8.71281
rtoes -29.6631
lfemur -26.8786 -9.75979 -19.3331
ltibia 18.3371
lfoot -12.3692 4.39548
ltoes -36.8984
425
root 8.8659 16.2977 23.0232 -154.57 -0.366385 179.739
lowerback -26.9045 -1.4352 -4.83666
upperback -2.74807 -1.19026 -0.141062
thorax 11.9782 -1.1051 2.12877
lowerneck -1.40557 -3.8573 -0.750309
upperneck -5.25346 -4.86645 3.1667
head -1.28627 -2.39062 1.13411
rclavicle -3.57812e-015 2.38542e-015
rhumerus -36.8991 -17.6276 -80.2046
rradius 29.4278
rwrist -0.251986
rhand -7.62715 -52.2942
rfingers 7.12502
rthumb 18.2676 -81.4565
lclavicle -3.57812e-015 2.38542e-015
lhumerus -31.3354 5.14376 81.7224
lradius 19.2899
lwrist -7.95909
lhand -20.5013 -13.8283
lfingers 7.12502
lthumb 5.85581 16.0708
rfemur -26.0184 8.98366 16.7307
rtibia 15.8281
rfoot -23.4036 -8.65433
rtoes -29.226
lfemur -26.8652 -9.72819 -19.3368
ltibia 18.2783
lfoot -12.4927 4.31511
ltoes -36.5539
426
root 8.86673 16.2955 23.0146 -154.538 -0.414406 179.801
lowerback -26.9808 -1.43144 -4.76215
upperback -2.73608 -1.20359 -0.134892
thorax 12.0327 -1.1088 2.08653
lowerneck -1.4212 -3.89654 -0.726939
upperneck -5.35841 -4.91078 3.17599
head -1.31614 -2.41145 1.13488
rclavicle 1.2424e-015 2.34566e-014
rhumerus -37.0133 -17.7522 -80.1575
rradius 29.4914
rwrist -0.173146
rhand -7.16482 -51.8844
rfingers 7.12502
rthumb 18.7123 -81.0043
lclavicle 1.2424e-015 2.34566e-014
lhumerus -31.3522 5.53419 81.4764
lradius 19.129
lwrist -8.70263
lhand -20.6871 -13.6967
lfingers 7.12502
lthumb 5.67642 16.2073
rfemur -25.9677 8.89395 16.8594
rtibia 15.7394
rfoot -23.3999 -8.63514
rtoes -29.134
lfemur -26.8298 -9.6899 -19.2686
ltibia 18.2099
lfoot -12.6304 4.27009
ltoes -37.1167
427
root 8.86755 16.2943 23.0091 -154.549 -0.462671 179.865
lowerback -26.9843 -1.44383 -4.69258
upperback -2.70848 -1.23726 -0.105792
thorax 12.0689 -1.12018 2.06718
lowerneck -1.47614 -3.92112 -0.76679
upperneck -5.41213 -4.93705 3.20945
head -1.32149 -2.42237 1.15169
rclavicle -5.06901e-015 3.18055e-015
rhumerus -36.9571 -17.9968 -80.0598
rradius 29.3633
rwrist 0.0265085
rhand -6.97792 -51.7542
rfingers 7.12502
rthumb 18.8921 -80.8568
lclavicle -5.06901e-015 3.18055e-015
lhumerus -31.4178 5.41946 81.53
lradius 19.0616
lwrist -8.41374
lhand -20.9765 -13.5442
lfingers 7.12502
lthumb 5.39703 16.3671
rfemur -25.9001 8.91073 16.9511
rtibia 15.6741
rfoot -23.3761 -8.68352
rtoes -29.2618
lfemur -26.7803 -9.65855 -19.1961
ltibia 18.1523
lfoot -12.6037 4.26615
ltoes -37.6805
428
root 8.86895 16.2939 23.0045 -154.563 -0.461754 179.87
lowerback -26.9788 -1.46014 -4.71546
upperback -2.70158 -1.25348 -0.0781138
thorax 12.0764 -1.12905 2.10609
lowerneck -1.43188 -3.95429 -0.845186
upperneck -5.49003 -4.97469 3.27708
head -1.34951 -2.44039 1.18878
rclavicle -4.96962e-015 3.18055e-015
rhumerus -36.9237 -18.2648 -79.9049
rradius 29.1948
rwrist 0.250846
rhand -7.0138 -51.929
rfingers 7.12502
rthumb 18.8575 -81.0349
lclavicle -4.96962e-015 3.18055e-015
lhumerus -31.5039 5.42582 81.5635
lradius 18.9685
lwrist -8.15065
lhand -21.0181 -13.6243
lfingers 7.12502
lthumb 5.35683 16.288
rfemur -25.8475 8.9783 16.9425
rtibia 15.6238
rfoot -23.3728 -8.73533
rtoes -29.684
lfemur -26.727 -9.68385 -19.1689
ltibia 18.0873
lfoot -12.5685 4.26766
ltoes -37.5297
